<svg width="48" height="9" viewBox="0 0 48 9" fill="none" xmlns="http://www.w3.org/2000/svg">
<path d="M29.3089 7.16703C27.6559 7.2808 26.3472 6.0303 26.3859 4.37396C26.4245 2.71763 27.7959 1.28268 29.4489 1.16891L29.3789 4.16797L29.3089 7.16703ZM36.9125 3.59961L36.8869 6.59529V6.59529L36.9125 3.59961ZM44.4031 0.00927883C46.0564 -0.116974 47.3754 1.12267 47.3492 2.7781C47.323 4.43353 45.9615 5.87787 44.3083 6.00412L44.3557 3.0067L44.4031 0.00927883ZM29.3789 4.16797C29.4489 1.16891 29.4489 1.16891 29.4489 1.16891C29.4489 1.16891 29.449 1.1689 29.449 1.1689C29.4491 1.16889 29.4493 1.16888 29.4495 1.16887C29.45 1.16883 29.4507 1.16879 29.4517 1.16872C29.4536 1.16859 29.4565 1.16839 29.4604 1.16812C29.4682 1.16758 29.4799 1.16677 29.4954 1.1657C29.5264 1.16355 29.5724 1.16036 29.6323 1.15619C29.7521 1.14785 29.9273 1.1356 30.1481 1.12002C30.5897 1.08884 31.2137 1.04434 31.9424 0.991091C33.4015 0.88445 35.2729 0.743249 36.9381 0.603936L36.9125 3.59961L36.8869 6.59529C35.1907 6.73719 33.2952 6.88017 31.8279 6.9874C31.0933 7.04109 30.4642 7.08595 30.0186 7.1174C29.7957 7.13313 29.6187 7.14551 29.4972 7.15397C29.4364 7.1582 29.3895 7.16146 29.3577 7.16365C29.3419 7.16475 29.3297 7.16559 29.3215 7.16616C29.3175 7.16644 29.3143 7.16665 29.3122 7.1668C29.3112 7.16687 29.3104 7.16693 29.3098 7.16697C29.3095 7.16699 29.3093 7.167 29.3092 7.16701C29.3091 7.16702 29.309 7.16702 29.309 7.16702C29.3089 7.16703 29.3089 7.16703 29.3789 4.16797ZM36.9125 3.59961L36.9381 0.603936C38.6264 0.462701 40.4931 0.314011 41.9358 0.200772C42.6575 0.144119 43.274 0.0962704 43.7102 0.0625777C43.9283 0.0457304 44.1014 0.0324196 44.22 0.0233142C44.2793 0.0187613 44.325 0.0152596 44.3559 0.0128927C44.3713 0.0117091 44.3831 0.0108093 44.391 0.0102036C44.395 0.00990061 44.398 0.00967135 44.4 0.00951666C44.401 0.00943946 44.4018 0.00938083 44.4023 0.00934126C44.4026 0.00932135 44.4028 0.00930615 44.4029 0.0092959C44.403 0.00929056 44.403 0.00928655 44.4031 0.00928373C44.4031 0.00928076 44.4031 0.00927883 44.3557 3.0067C44.3083 6.00412 44.3083 6.00412 44.3082 6.00412C44.3082 6.00413 44.3082 6.00413 44.3081 6.00413C44.308 6.00414 44.3078 6.00415 44.3076 6.00417C44.3071 6.00421 44.3064 6.00426 44.3054 6.00434C44.3035 6.00448 44.3006 6.00471 44.2967 6.005C44.289 6.00559 44.2774 6.00648 44.2622 6.00765C44.2317 6.00998 44.1864 6.01345 44.1275 6.01797C44.0098 6.02701 43.8377 6.04025 43.6206 6.05702C43.1864 6.09055 42.5725 6.13821 41.8536 6.19463C40.4151 6.30754 38.5602 6.45531 36.8869 6.59529L36.9125 3.59961Z" fill="black"/>
<path d="M2.92365 8.30375C1.27064 8.41752 -0.0380515 7.16702 0.000609 5.51068C0.0392695 3.85435 1.41064 2.4194 3.06365 2.30563L2.99365 5.30469L2.92365 8.30375ZM10.5273 4.73633L10.5017 7.73201V7.73201L10.5273 4.73633ZM18.0179 1.146C19.6711 1.01975 20.9901 2.25939 20.9639 3.91482C20.9377 5.57025 19.5763 7.01459 17.923 7.14084L17.9704 4.14342L18.0179 1.146ZM2.99365 5.30469C3.06365 2.30563 3.06365 2.30563 3.06367 2.30563C3.06369 2.30563 3.06372 2.30562 3.06377 2.30562C3.06388 2.30561 3.06404 2.3056 3.06427 2.30559C3.06473 2.30555 3.06545 2.3055 3.06641 2.30544C3.06833 2.30531 3.07125 2.3051 3.07516 2.30483C3.08296 2.3043 3.09468 2.30349 3.11017 2.30241C3.14114 2.30027 3.18718 2.29708 3.24707 2.29291C3.36685 2.28457 3.54201 2.27232 3.76281 2.25673C4.20448 2.22556 4.82849 2.18106 5.55714 2.12781C7.01628 2.02117 8.8876 1.87997 10.5529 1.74066L10.5273 4.73633L10.5017 7.73201C8.80541 7.87391 6.90991 8.01688 5.44263 8.12412C4.70807 8.1778 4.07897 8.22267 3.63332 8.25412C3.41046 8.26985 3.23341 8.28223 3.1119 8.29069C3.05114 8.29492 3.00427 8.29817 2.97249 8.30037C2.9566 8.30147 2.94448 8.30231 2.93629 8.30288C2.9322 8.30316 2.92908 8.30337 2.92697 8.30352C2.92591 8.30359 2.92511 8.30365 2.92455 8.30368C2.92428 8.3037 2.92406 8.30372 2.92391 8.30373C2.92384 8.30373 2.92377 8.30374 2.92373 8.30374C2.92368 8.30374 2.92365 8.30375 2.99365 5.30469ZM10.5273 4.73633L10.5529 1.74066C12.2412 1.59942 14.1078 1.45073 15.5505 1.33749C16.2723 1.28084 16.8888 1.23299 17.325 1.1993C17.5431 1.18245 17.7161 1.16914 17.8347 1.16003C17.894 1.15548 17.9397 1.15198 17.9706 1.14961C17.9861 1.14843 17.9979 1.14753 18.0058 1.14692C18.0097 1.14662 18.0127 1.14639 18.0148 1.14624C18.0158 1.14616 18.0165 1.1461 18.0171 1.14606C18.0173 1.14604 18.0175 1.14602 18.0177 1.14601C18.0177 1.14601 18.0178 1.14601 18.0178 1.146C18.0178 1.146 18.0179 1.146 17.9704 4.14342C17.923 7.14084 17.923 7.14084 17.923 7.14084C17.9229 7.14084 17.9229 7.14085 17.9229 7.14085C17.9227 7.14086 17.9226 7.14087 17.9223 7.14089C17.9219 7.14093 17.9211 7.14098 17.9202 7.14106C17.9182 7.1412 17.9153 7.14143 17.9115 7.14172C17.9038 7.14231 17.8922 7.1432 17.8769 7.14436C17.8464 7.1467 17.8011 7.15017 17.7423 7.15469C17.6245 7.16373 17.4524 7.17697 17.2354 7.19373C16.8012 7.22727 16.1872 7.27492 15.4684 7.33135C14.0299 7.44426 12.1749 7.59203 10.5017 7.73201L10.5273 4.73633Z" fill="black"/>
</svg>
