<svg width="322" height="343" viewBox="0 0 322 343" fill="none" xmlns="http://www.w3.org/2000/svg">
<path d="M134.764 0.227653C149.361 -2.81478 156.607 25.3672 159.578 41.9152C160.934 41.8604 162.297 41.8322 163.668 41.8321C209.695 41.8321 247.461 73.0335 251.276 112.77L287.949 95.3898C287.949 95.3898 316.702 80.0815 320.937 91.0802C331.173 117.671 264.556 142.266 245.046 148.833C236.551 167.097 220.388 181.867 200.09 190.027C200.333 235.09 200.594 292.55 200.594 333.324C200.594 344.24 163.9 347.179 163.9 333.324V196.975C163.823 196.975 163.745 196.977 163.668 196.977C158.631 196.977 153.694 196.601 148.889 195.884C149.123 239.982 149.359 294.296 149.359 333.324C149.359 344.24 112.666 347.179 112.666 333.324V182.6C100.604 175.009 90.8065 164.797 84.3429 152.906C59.3151 160.72 3.57801 175.06 0.0596694 149.067C-1.5447 137.209 29.7359 132.295 29.8595 132.275L75.8253 122.778C75.771 121.66 75.7423 120.535 75.7423 119.404C75.7423 90.529 93.6254 65.339 120.153 51.9835L111.675 20.0841C111.675 20.0841 105.808 1.74199 113.071 0.227653C128.648 -3.0196 135.856 29.2885 138.429 45.0753C138.92 44.9456 139.413 44.8206 139.908 44.6984L133.366 20.0841C133.366 20.0841 127.5 1.7418 134.764 0.227653Z" fill="url(#paint0_linear_2_7224)"/>
<ellipse cx="144.495" cy="95.2866" rx="20.2882" ry="23.2749" fill="white"/>
<ellipse cx="177.767" cy="95.2866" rx="20.2882" ry="23.2749" fill="white"/>
<ellipse cx="144.494" cy="95.2859" rx="11.3614" ry="13.0339" fill="black"/>
<ellipse cx="177.768" cy="95.2859" rx="11.3614" ry="13.0339" fill="black"/>
<path d="M184.727 136.252H143.619C136.436 136.252 130.976 142.71 132.171 149.793C132.271 150.385 132.413 150.963 132.642 151.518C134.245 155.417 142.17 171.63 163.064 171.63C183.413 171.63 192.792 156.253 195.061 151.848C195.458 151.077 195.693 150.25 195.838 149.394C196.998 142.52 191.699 136.252 184.727 136.252Z" fill="black" stroke="#FEDFA6" stroke-width="6" stroke-linecap="round"/>
<defs>
<linearGradient id="paint0_linear_2_7224" x1="88.1373" y1="19.8605" x2="286.69" y2="194.984" gradientUnits="userSpaceOnUse">
<stop stop-color="#FFF1DB"/>
<stop offset="1" stop-color="#FFB951"/>
</linearGradient>
</defs>
</svg>
