<svg width="20" height="20" viewBox="0 0 20 20" fill="none" xmlns="http://www.w3.org/2000/svg">
<path d="M15 9C14.6 9 14.25 9.23 14.09 9.59L10.09 18.59L11.92 19.4L12.99 16.99H17.02L18.09 19.4L19.92 18.59L15.92 9.59C15.8411 9.41455 15.7133 9.26557 15.5519 9.16092C15.3905 9.05628 15.2024 9.0004 15.01 9H15ZM13.87 15L15 12.46L16.13 15H13.87ZM10.25 12.97L10.74 11.03C10.61 11 9.14 10.6 7.57 9.61C8.97 8.2 10.06 6.35 10.31 4H11.99V2H6.99V0H4.99V2H0V4H8.3C8.05 5.91 7.11 7.34 5.99 8.4C5.3 7.75 4.68 6.96 4.25 6H2.12C2.62 7.44 3.45 8.63 4.42 9.61C2.85 10.6 1.38 11 1.25 11.03L1.74 12.97C2.92 12.67 4.5 12.01 6 10.95C7.49 12.01 9.08 12.67 10.25 12.97Z" fill="#BABABA"/>
</svg>
