<svg width="24" height="33" viewBox="0 0 24 33" fill="none" xmlns="http://www.w3.org/2000/svg">
<path d="M11.8008 20.2299C14.5992 20.2299 16.8414 17.9709 16.8414 15.1724L16.8582 5.05747C16.8582 2.259 14.5992 0 11.8008 0C9.0023 0 6.74329 2.259 6.74329 5.05747V15.1724C6.74329 17.9709 9.0023 20.2299 11.8008 20.2299ZM20.7356 15.1724C20.7356 20.2299 16.4536 23.7701 11.8008 23.7701C7.14789 23.7701 2.8659 20.2299 2.8659 15.1724H0C0 20.9211 4.58544 25.6751 10.1149 26.5011V32.0306H13.4866V26.5011C19.0161 25.6919 23.6015 20.9379 23.6015 15.1724H20.7356Z" fill="black"/>
</svg>
